<svg xmlns="http://www.w3.org/2000/svg" viewBox="0 0 64 64" role="img" aria-label="Burger icon">
  <g fill="none" stroke="#dbe2ec" stroke-width="2.8" stroke-linecap="round" stroke-linejoin="round">
    <path d="M10.5 28.5c0-8.3 9.2-14.5 21.5-14.5s21.5 6.2 21.5 14.5" />
    <path d="M12 34h40" />
    <path d="M12.5 38.6c2.7 2.7 5.5 3.9 8.7 3.9 3.1 0 5.7-1.2 8.3-2.6 2.4-1.3 4.8-2.5 7.8-2.5 3.3 0 5.8 1.3 8.3 2.7 2.3 1.3 4.7 2.4 7.6 2.4" />
    <path d="M13.8 45.5h36.4a4.2 4.2 0 0 0 4.2-4.2v-1.2H9.6v1.2a4.2 4.2 0 0 0 4.2 4.2z" />
    <path d="M22.5 21.8l1.6 1" />
    <path d="M28.8 20.2l1.6 1" />
    <path d="M35.2 22.4l1.6 1" />
    <path d="M41.4 20.8l1.6 1" />
  </g>
</svg>
