<svg xmlns="http://www.w3.org/2000/svg" viewBox="0 0 64 64" role="img" aria-label="Chicken leg icon">
  <g fill="none" stroke="#dbe2ec" stroke-width="2.8" stroke-linecap="round" stroke-linejoin="round">
    <path d="M40.6 15.5c7.4.9 13 7.5 12.3 15s-7.5 13.1-15 12.4c-3.2-.3-6.2-1.7-8.5-3.8L18.9 49.6c-1.9 1.9-5 1.9-7 0s-1.9-5 0-7l10.6-10.5c-2-2.9-2.9-6.5-2.2-10.1 1.3-7.5 8.5-12.5 16-11.2 1.6.3 3.1.8 4.3 1.7" />
    <path d="M13.8 41.9l8.3 8.3" />
    <path d="M11.4 47.1h5.2" />
    <path d="M15 50.7v-5.2" />
  </g>
</svg>
