<svg xmlns="http://www.w3.org/2000/svg" viewBox="0 0 48 48" role="img" aria-label="Fries icon">
  <!-- Source reference: IconPark Outline, french-fries, via Iconify. -->
  <g fill="none" stroke="#dbe2ec" stroke-width="4" stroke-linecap="round" stroke-linejoin="round">
    <path d="M21 22V12a2 2 0 0 0-2-2h-3a2 2 0 0 0-2 2v9m21 0v-7a2 2 0 0 0-2-2h-3a2 2 0 0 0-2 2v8m0 0V6a2 2 0 0 0-2-2h-3a2 2 0 0 0-2 2v16"/>
    <path d="M7 18s7 5 17 5s17-5 17-5l-4.818 26H11.818z"/>
    <ellipse cx="24" cy="33" rx="6" ry="3"/>
  </g>
</svg>
