<svg xmlns="http://www.w3.org/2000/svg" viewBox="0 0 64 64" role="img" aria-label="Whisk icon">
  <g fill="none" stroke="#dbe2ec" stroke-width="2.8" stroke-linecap="round" stroke-linejoin="round">
    <path d="M46 8L31 23" />
    <path d="M43.2 10.8l4 4" />
    <rect x="26.6" y="19.8" width="8" height="8" rx="2.4" transform="rotate(-45 30.6 23.8)" />
    <path d="M30.6 26.8c-9 4.2-14.8 12.3-14.8 22 0 5.7 4.4 10.2 10 10.2" />
    <path d="M30.6 26.8c-5.2 5.6-8.2 13.7-8.2 21.8 0 4.3 1.8 7.8 5 10.4" />
    <path d="M30.6 26.8c0 0 8.2 8.1 8.2 21.8 0 4.3-1.8 7.8-5 10.4" />
    <path d="M30.6 26.8c9 4.2 14.8 12.3 14.8 22 0 5.7-4.4 10.2-10 10.2" />
  </g>
</svg>
