<svg xmlns="http://www.w3.org/2000/svg" viewBox="0 0 1448 1086" width="1448" height="1086">
<rect width="100%" height="100%" fill="#ffffff"/>
<path d="M 1253.0,361.0 L 1241.0,329.0 L 1220.0,294.0 L 1198.0,269.0 L 1164.0,242.0 L 1126.0,220.0 L 1074.0,199.0 L 1036.0,189.0 L 991.0,182.0 L 938.0,180.0 L 900.0,183.0 L 853.0,192.0 L 808.0,207.0 L 779.0,221.0 L 737.0,248.0 L 699.0,279.0 L 666.0,313.0 L 606.0,290.0 L 545.0,277.0 L 490.0,274.0 L 427.0,281.0 L 373.0,297.0 L 312.0,328.0 L 268.0,361.0 L 230.0,401.0 L 203.0,444.0 L 186.0,490.0 L 181.0,518.0 L 181.0,553.0 L 186.0,587.0 L 201.0,628.0 L 219.0,652.0 L 233.0,663.0 L 249.0,671.0 L 268.0,676.0 L 288.0,677.0 L 307.0,674.0 L 328.0,665.0 L 347.0,649.0 L 354.0,635.0 L 355.0,621.0 L 348.0,605.0 L 335.0,594.0 L 317.0,588.0 L 317.0,584.0 L 335.0,574.0 L 359.0,567.0 L 408.0,566.0 L 428.0,569.0 L 429.0,573.0 L 391.0,634.0 L 356.0,708.0 L 347.0,738.0 L 353.0,757.0 L 365.0,768.0 L 390.0,780.0 L 509.0,822.0 L 587.0,842.0 L 616.0,846.0 L 635.0,845.0 L 648.0,838.0 L 656.0,828.0 L 663.0,811.0 L 668.0,786.0 L 669.0,739.0 L 665.0,703.0 L 656.0,659.0 L 656.0,651.0 L 659.0,649.0 L 687.0,659.0 L 710.0,671.0 L 729.0,685.0 L 742.0,699.0 L 740.0,704.0 L 728.0,706.0 L 710.0,719.0 L 700.0,739.0 L 698.0,757.0 L 701.0,773.0 L 712.0,792.0 L 730.0,804.0 L 745.0,808.0 L 768.0,808.0 L 797.0,800.0 L 825.0,783.0 L 856.0,753.0 L 859.0,754.0 L 863.0,764.0 L 874.0,778.0 L 886.0,784.0 L 900.0,785.0 L 951.0,772.0 L 1084.0,732.0 L 1122.0,719.0 L 1140.0,708.0 L 1148.0,698.0 L 1153.0,685.0 L 1153.0,667.0 L 1147.0,634.0 L 1178.0,611.0 L 1205.0,584.0 L 1230.0,547.0 L 1252.0,495.0 L 1262.0,440.0 L 1260.0,393.0 Z M 1085.0,493.0 L 1101.0,494.0 L 1126.0,506.0 L 1141.0,524.0 L 1142.0,532.0 L 1139.0,538.0 L 1131.0,544.0 L 1114.0,547.0 Z" fill="#000000" fill-rule="evenodd"/>
</svg>
