<svg xmlns="http://www.w3.org/2000/svg" viewBox="0 0 64 64" role="img" aria-label="Kitchen Hub">
  <rect width="64" height="64" rx="14" fill="#10141b"/>
  <g opacity="0.22">
    <path d="M0 20c10-7 22-7 32 0s22 7 32 0v4c-10 7-22 7-32 0S10 17 0 24z" fill="#8b96a8"/>
  </g>
  <g transform="translate(10 14)">
    <path d="M4 24c0-6.4 5.2-11.6 11.6-11.6h12.8C34.8 12.4 40 17.6 40 24v1.4c0 4.7-3.8 8.6-8.6 8.6H12.6C7.8 34 4 30.1 4 25.4z" fill="none" stroke="#e6ebf3" stroke-width="2.2"/>
    <path d="M9 23.5h26" stroke="#e6ebf3" stroke-width="2" stroke-linecap="round"/>
    <path d="M15 9.5c0-2 1.2-3.7 3.1-4.9" stroke="#c9d2df" stroke-width="1.8" stroke-linecap="round" fill="none"/>
    <path d="M22 8c0-2.3 1.4-4.3 3.6-5.6" stroke="#c9d2df" stroke-width="1.8" stroke-linecap="round" fill="none"/>
    <path d="M29 9.5c0-2 1.2-3.7 3.1-4.9" stroke="#c9d2df" stroke-width="1.8" stroke-linecap="round" fill="none"/>
    <circle cx="12" cy="25" r="1.2" fill="#c9d2df"/>
    <circle cx="18" cy="26" r="1.2" fill="#c9d2df"/>
    <circle cx="24" cy="25" r="1.2" fill="#c9d2df"/>
    <circle cx="30" cy="26" r="1.2" fill="#c9d2df"/>
  </g>
</svg>
